{
  "asset": {
    "version": "2.0",
    "generator": "THREE.GLTFExporter"
  },
  "scenes": [
    {
      "name": "Scene",
      "nodes": [
        2,
        3
      ]
    }
  ],
  "scene": 0,
  "nodes": [
    {
      "matrix": [
        0.2,
        0,
        0,
        0,
        0,
        0.2,
        0,
        0,
        0,
        0,
        0.2,
        0,
        0.39597498397816366,
        -0.7781423044690793,
        -1.2677547260864231e-7,
        1
      ],
      "name": "Icosphere__0",
      "extras": {
        "name": "Icosphere__0"
      },
      "mesh": 0
    },
    {
      "matrix": [
        100,
        0,
        0,
        0,
        0,
        -0.000016292067894774224,
        -99.99999999999866,
        0,
        0,
        99.99999999999866,
        -0.000016292067894774224,
        0,
        -122.16290283203125,
        0,
        0,
        1
      ],
      "name": "Icosphere",
      "extras": {
        "name": "Icosphere"
      },
      "children": [
        0
      ]
    },
    {
      "matrix": [
        1,
        0,
        0,
        0,
        0,
        1,
        0,
        0,
        0,
        0,
        1,
        0,
        80.06683526152926,
        0,
        -81.75477480981965,
        1
      ],
      "name": "brain.gltf",
      "children": [
        1
      ]
    },
    {
      "matrix": [
        1,
        0,
        0,
        0,
        0,
        1,
        0,
        0,
        0,
        0,
        1,
        0,
        0,
        61.818091877966935,
        0,
        1
      ],
      "name": "AmbientLight"
    }
  ],
  "bufferViews": [
    {
      "buffer": 0,
      "byteOffset": 0,
      "byteLength": 111168,
      "target": 34962,
      "byteStride": 12
    },
    {
      "buffer": 0,
      "byteOffset": 111168,
      "byteLength": 111168,
      "target": 34962,
      "byteStride": 12
    },
    {
      "buffer": 0,
      "byteOffset": 222336,
      "byteLength": 148224,
      "target": 34962,
      "byteStride": 16
    },
    {
      "buffer": 0,
      "byteOffset": 370560,
      "byteLength": 74112,
      "target": 34962,
      "byteStride": 8
    },
    {
      "buffer": 0,
      "byteOffset": 444672,
      "byteLength": 114336,
      "target": 34963
    }
  ],
  "buffers": [
    {
      "byteLength": 559008,
      "uri": "data:application/octet-stream;base64,"
    }
  ],
  "accessors": [
    {
      "bufferView": 0,
      "componentType": 5126,
      "count": 9264,
      "max": [
        0.9998061060905457,
        0.9999839067459106,
        0.9997145533561707
      ],
      "min": [
        -0.9998850226402283,
        -0.9998698830604553,
        -0.9997357130050659
      ],
      "type": "VEC3"
    },
    {
      "bufferView": 1,
      "componentType": 5126,
      "count": 9264,
      "max": [
        1.1803027391433716,
        1.7213114500045776,
        1.7654175758361816
      ],
      "min": [
        -1.1803027391433716,
        -1.7213114500045776,
        -1.7654175758361816
      ],
      "type": "VEC3"
    },
    {
      "bufferView": 2,
      "componentType": 5126,
      "count": 9264,
      "max": [
        0.999980092048645,
        0.999761164188385,
        0.9996331334114075,
        1
      ],
      "min": [
        -0.9999703764915466,
        -0.999966561794281,
        -0.9999668598175049,
        -1
      ],
      "type": "VEC4"
    },
    {
      "bufferView": 3,
      "componentType": 5126,
      "count": 9264,
      "max": [
        0.9999999403953552,
        1
      ],
      "min": [
        0,
        0
      ],
      "type": "VEC2"
    },
    {
      "bufferView": 4,
      "componentType": 5125,
      "count": 28584,
      "max": [
        9263
      ],
      "min": [
        0
      ],
      "type": "SCALAR"
    }
  ],
  "materials": [
    {
      "pbrMetallicRoughness": {
        "baseColorFactor": [
          0.9019607843137255,
          0.9019607843137255,
          0.9019607843137255,
          0.26
        ],
        "metallicFactor": 0,
        "roughnessFactor": 0.82
      },
      "alphaMode": "BLEND",
      "doubleSided": true
    }
  ],
  "meshes": [
    {
      "primitives": [
        {
          "mode": 1,
          "attributes": {
            "NORMAL": 0,
            "POSITION": 1,
            "TANGENT": 2,
            "TEXCOORD_0": 3,
            "TEXCOORD_1": 3
          },
          "indices": 4,
          "material": 0
        }
      ]
    }
  ]
}